<svg xmlns="http://www.w3.org/2000/svg" xmlns:xlink="http://www.w3.org/1999/xlink" viewBox="0 0 512 512" width="128px" height="128px"><defs><linearGradient id="lnq~V_B9acsrHjt3iNGt9a" x1="221.859" x2="221.859" y1="23" y2="489.181" gradientUnits="userSpaceOnUse"><stop offset="0" stop-color="#00efd1"/><stop offset="1" stop-color="#00acea"/></linearGradient><linearGradient id="lnq~V_B9acsrHjt3iNGt9b" x1="286.889" x2="286.889" y1="23" y2="489.181" xlink:href="#lnq~V_B9acsrHjt3iNGt9a"/><linearGradient id="lnq~V_B9acsrHjt3iNGt9c" x1="256" x2="256" y1="23" y2="489.181" xlink:href="#lnq~V_B9acsrHjt3iNGt9a"/></defs><path fill="url(#lnq~V_B9acsrHjt3iNGt9a)" d="M234.865,118.959a8,8,0,0,0-8,8,5.006,5.006,0,1,1-10.011,0,8,8,0,1,0-16,0,21.006,21.006,0,1,0,42.011,0A8,8,0,0,0,234.865,118.959Z"/><path fill="url(#lnq~V_B9acsrHjt3iNGt9b)" d="M286.89,147.965A21.029,21.029,0,0,0,307.9,126.959a8,8,0,0,0-16,0,5.007,5.007,0,0,1-10.013,0,8,8,0,0,0-16,0A21.03,21.03,0,0,0,286.89,147.965Z"/><path fill="url(#lnq~V_B9acsrHjt3iNGt9c)" d="M424.232,251.742a7.847,7.847,0,0,0-6.541-1.682l-31.119,6.28a59.7,59.7,0,0,0-52.3-30.34H305V210.286a122.539,122.539,0,0,0,9.351-8.269A85.976,85.976,0,0,0,339,141.805V73h10.307a7.973,7.973,0,0,0,8-7.969A60.1,60.1,0,0,0,297.243,5h-53.6a34.085,34.085,0,0,0-19.682,6.237A84.729,84.729,0,0,0,170,89.781v52.024a85.953,85.953,0,0,0,24.625,60.212A113.927,113.927,0,0,0,207,212.517V226H177.731a59.726,59.726,0,0,0-52.338,30.34l-31.156-6.16a7.668,7.668,0,0,0-6.469,1.622A7.747,7.747,0,0,0,85,257.914V467.345a7.875,7.875,0,0,0,6.335,7.854l163.214,31.655a7.673,7.673,0,0,0,1.487.146,7.855,7.855,0,0,0,1.5-.146L420.674,475.2A7.867,7.867,0,0,0,427,467.345V257.914A7.868,7.868,0,0,0,424.232,251.742ZM369.7,259.618,264,279.869V263.914L299.04,242h35.229A43.775,43.775,0,0,1,369.7,259.618ZM243.647,21h53.6c21.566,0,39.562,16,43.336,36H243.647a18,18,0,1,1,0-36ZM209.633,38.387c-.005.216-.017.429-.017.645a34.06,34.06,0,0,0,18.32,30.173C212.327,84.674,195.5,87.833,186.2,88.24A68.547,68.547,0,0,1,209.633,38.387ZM186,141.805V104.227C200,103.758,224.909,99,246.008,73H323v68.805a70.206,70.206,0,0,1-20.262,49.05,66.761,66.761,0,0,1-96.549,0A70.13,70.13,0,0,1,186,141.805Zm68.476,85.7A83.722,83.722,0,0,0,289,219.959v9.18l-32.909,20.906L223,229.127V221.3A83.4,83.4,0,0,0,254.476,227.5ZM177.731,242h35.036L248,263.925v15.944L142.3,259.617A43.761,43.761,0,0,1,177.731,242ZM101,343h14.333A11.4,11.4,0,0,1,127,354.6v23.667A11.508,11.508,0,0,1,115.333,390H101Zm0,63h14.333A27.523,27.523,0,0,0,143,378.266V354.6A27.409,27.409,0,0,0,115.333,327H101V267.614l25.6,4.99c.065.03.054.065.12.093a7.806,7.806,0,0,0,3.073.633c.108,0,.327-.019.434-.024L229,292.432V485.565L101,460.747Zm155,84.851-11-2.184V295.534l9.61,1.888a7,7,0,0,0,2.846,0L267,295.534V488.667Zm27-5.286V292.432l99.273-19.22a7.471,7.471,0,0,0,2.467-.493L411,267.614V327H397.049A27.733,27.733,0,0,0,369,354.6v23.667A27.847,27.847,0,0,0,397.049,406H411v54.747ZM411,343v47H397.049A11.832,11.832,0,0,1,385,378.266V354.6A11.719,11.719,0,0,1,397.049,343Z"/></svg>